<?xml version="1.0" encoding="utf-8"?>
<!-- Generator: Adobe Illustrator 17.1.0, SVG Export Plug-In . SVG Version: 6.00 Build 0)  -->
<!DOCTYPE svg PUBLIC "-//W3C//DTD SVG 1.1//EN" "http://www.w3.org/Graphics/SVG/1.1/DTD/svg11.dtd">
<svg version="1.1" id="Layer_1" xmlns="http://www.w3.org/2000/svg" xmlns:xlink="http://www.w3.org/1999/xlink" x="0px" y="0px"
	 viewBox="0 0 65.956 65.913" enable-background="new 0 0 65.956 65.913" xml:space="preserve">
<circle fill="#F18360" cx="32.54" cy="32.46" r="32.54"/>
<polygon fill="#F1F0EE" points="10.58,25.495 10.584,39.299 62.963,55.579 62.95,9.186 "/>
<rect x="62.957" y="9.185" fill="#495C5F" width="2.993" height="46.393"/>
<path fill="#F1F0EE" d="M33.056,34.864c-6.06-2.073-12.653,1.16-14.726,7.221c-2.073,6.06,1.16,12.653,7.221,14.726
	c6.06,2.073,12.653-1.16,14.726-7.221C42.349,43.53,39.116,36.937,33.056,34.864z M27.064,52.383
	c-3.615-1.236-5.544-5.169-4.307-8.784s5.169-5.544,8.784-4.307c3.615,1.236,5.544,5.169,4.307,8.784
	C34.612,51.691,30.679,53.619,27.064,52.383z"/>
<path fill="none" d="M33.032,34.864c-6.06-2.073-12.653,1.16-14.726,7.221c-2.073,6.06,1.16,12.653,7.221,14.726
	c6.06,2.073,12.653-1.16,14.726-7.221C42.326,43.53,39.093,36.937,33.032,34.864z M27.041,52.383
	c-3.615-1.236-5.544-5.169-4.307-8.784c1.236-3.615,5.169-5.544,8.784-4.307c3.615,1.236,5.544,5.169,4.307,8.784
	C34.589,51.691,30.656,53.619,27.041,52.383z"/>
<rect x="7.59" y="25.483" fill="#495C5F" width="2.993" height="13.842"/>
<path fill="none" d="M25.331,45.822l0.551-1.612l7.08,2.421l-0.551,1.612l0.175-0.019l0.374,3.484
	c1.307-0.813,2.352-2.063,2.889-3.632c1.236-3.615-0.692-7.548-4.307-8.784s-7.548,0.692-8.784,4.307
	c-0.531,1.554-0.475,3.166,0.046,4.598l2.401-2.497L25.331,45.822z"/>
<path fill="#F1F0EE" d="M33.055,34.864c-6.06-2.073-12.653,1.16-14.726,7.221c-1.148,3.357-0.663,6.875,1.024,9.699l3.45-3.587
	c-0.521-1.432-0.577-3.044-0.046-4.598c1.236-3.615,5.169-5.544,8.784-4.307s5.544,5.169,4.307,8.784
	c-0.537,1.569-1.583,2.82-2.889,3.632l0.53,4.939c3.081-1.195,5.634-3.687,6.787-7.058C42.349,43.53,39.116,36.937,33.055,34.864z"
	/>
<path fill="#495C5F" d="M27.064,52.383c-0.253-0.087-0.495-0.189-0.732-0.301l-3.339,3.473c0.784,0.508,1.633,0.94,2.557,1.256
	c0.911,0.311,1.833,0.489,2.75,0.569l-0.514-4.794C27.545,52.531,27.304,52.465,27.064,52.383z"/>
<path fill="#313E42" d="M23.865,50.108c-0.453-0.578-0.812-1.223-1.062-1.911l-3.45,3.587c0.731,1.225,1.692,2.313,2.842,3.207
	c0.256,0.199,0.523,0.385,0.798,0.564l3.339-3.473C25.343,51.613,24.509,50.929,23.865,50.108z"/>
<path fill="#313E42" d="M32.96,51.708c-0.623,0.388-1.307,0.671-2.023,0.846c-1.01,0.247-2.084,0.272-3.15,0.031l0.514,4.794
	c0.324,0.028,0.647,0.046,0.969,0.047c1.459,0.004,2.888-0.263,4.219-0.779L32.96,51.708z"/>
</svg>
