<?xml version="1.0" encoding="utf-8"?>
<!-- Generator: Adobe Illustrator 17.1.0, SVG Export Plug-In . SVG Version: 6.00 Build 0)  -->
<!DOCTYPE svg PUBLIC "-//W3C//DTD SVG 1.1//EN" "http://www.w3.org/Graphics/SVG/1.1/DTD/svg11.dtd">
<svg version="1.1" id="Layer_1" xmlns="http://www.w3.org/2000/svg" xmlns:xlink="http://www.w3.org/1999/xlink" x="0px" y="0px"
	 viewBox="0 0 269.498 269.498" enable-background="new 0 0 269.498 269.498" xml:space="preserve">
<g id="Logo_5_">
	<g id="Designer_That_Codes_2_" display="none">
		<circle display="inline" fill="#F18360" cx="134.749" cy="134.749" r="133.249"/>
		<rect x="51.05" y="107.915" display="inline" fill="none" width="188.699" height="77.526"/>
		<text transform="matrix(1 0 0 1 51.0496 123.4912)" display="inline"><tspan x="0" y="0" fill="#FFFFFF" font-family="'Apercu-Bold'" font-size="22" letter-spacing="6">DESIGNER</tspan><tspan x="0" y="25" fill="#FFFFFF" font-family="'Apercu-Bold'" font-size="22" letter-spacing="6">&amp;</tspan><tspan x="0" y="50" fill="#FFFFFF" font-family="'Apercu-Bold'" font-size="22" letter-spacing="6">DEVELOPER</tspan></text>
	</g>
	<g id="Logo_6_">
		<g>
			<path fill="#F18360" d="M134.749,269.498C60.448,269.498,0,209.049,0,134.749S60.448,0,134.749,0s134.749,60.448,134.749,134.749
				S209.05,269.498,134.749,269.498z M134.749,3C62.103,3,3,62.102,3,134.749s59.103,131.749,131.749,131.749
				s131.749-59.103,131.749-131.749S207.396,3,134.749,3z"/>
		</g>
		<g>
			<path fill="#F18360" d="M216.249,174.941c-0.828,0-1.5-0.671-1.5-1.5V134.78c0-20.48-16.598-37.143-37-37.143
				s-37,16.714-37,37.259v38.544c0,0.829-0.672,1.5-1.5,1.5s-1.5-0.671-1.5-1.5v-38.544c0-22.199,17.944-40.259,40-40.259
				s40,18.008,40,40.143v38.661C217.749,174.27,217.077,174.941,216.249,174.941z"/>
		</g>
		<g>
			<g>
				<path fill="#F18360" d="M91.077,174.922c-22.046,0-39.981-17.936-39.981-39.981s17.936-39.982,39.981-39.982
					s39.982,17.936,39.982,39.982S113.123,174.922,91.077,174.922z M91.077,97.958c-20.392,0-36.981,16.59-36.981,36.982
					c0,20.392,16.59,36.981,36.981,36.981c20.393,0,36.982-16.59,36.982-36.981C128.06,114.548,111.47,97.958,91.077,97.958z"/>
			</g>
			<g>
				<path fill="#F18360" d="M129.56,174.941c-0.828,0-1.5-0.671-1.5-1.5v-39c0-0.829,0.672-1.5,1.5-1.5s1.5,0.671,1.5,1.5v39
					C131.06,174.27,130.388,174.941,129.56,174.941z"/>
			</g>
		</g>
	</g>
</g>
</svg>
