<?xml version="1.0" encoding="utf-8"?>
<!-- Generator: Adobe Illustrator 18.0.0, SVG Export Plug-In . SVG Version: 6.00 Build 0)  -->
<!DOCTYPE svg PUBLIC "-//W3C//DTD SVG 1.1//EN" "http://www.w3.org/Graphics/SVG/1.1/DTD/svg11.dtd">
<svg version="1.1" id="Layer_1" xmlns="http://www.w3.org/2000/svg" xmlns:xlink="http://www.w3.org/1999/xlink" x="0px" y="0px"
	 viewBox="0 0 269.498 269.498" enable-background="new 0 0 269.498 269.498" xml:space="preserve">
<g>
	<g>
		<path fill="#313E42" d="M134.749,269.498C60.448,269.498,0,209.05,0,134.749S60.448,0,134.749,0s134.749,60.448,134.749,134.749
			S209.05,269.498,134.749,269.498z M134.749,3C62.103,3,3,62.103,3,134.749s59.103,131.749,131.749,131.749
			s131.749-59.103,131.749-131.749S207.396,3,134.749,3z"/>
	</g>
	<g>
		<g>
			<path fill="#313E42" d="M65.813,88.279v7.2h-2.112V78.679h5.856c3.145,0,4.992,1.848,4.992,4.8s-1.848,4.801-4.992,4.801H65.813z
				 M69.678,86.263c1.729,0,2.688-0.983,2.688-2.784c0-1.8-0.96-2.784-2.688-2.784h-3.864v5.568H69.678z"/>
		</g>
		<g>
			<path fill="#313E42" d="M94.278,95.479l-4.92-7.921h-2.521v7.921h-2.112V78.679h5.593c3,0,4.944,1.655,4.944,4.44
				c0,2.304-1.296,3.84-3.505,4.296l5.017,8.064H94.278z M86.838,80.694v4.849h3.528c1.8,0,2.712-0.816,2.712-2.424
				c0-1.608-0.912-2.425-2.712-2.425H86.838z"/>
		</g>
		<g>
			<path fill="#313E42" d="M112.638,78.486c2.112,0,3.889,0.768,5.353,2.304c1.465,1.513,2.185,3.625,2.185,6.289
				s-0.72,4.776-2.185,6.312c-1.464,1.512-3.24,2.28-5.353,2.28s-3.888-0.769-5.353-2.28c-1.464-1.536-2.184-3.648-2.184-6.312
				s0.72-4.776,2.184-6.289C108.75,79.254,110.525,78.486,112.638,78.486z M112.638,80.502c-1.56,0-2.855,0.576-3.864,1.705
				c-0.983,1.128-1.488,2.76-1.488,4.872s0.505,3.744,1.488,4.872c1.009,1.128,2.305,1.704,3.864,1.704
				c1.561,0,2.856-0.576,3.841-1.704c1.008-1.128,1.512-2.76,1.512-4.872s-0.504-3.744-1.512-4.872
				C115.494,81.078,114.198,80.502,112.638,80.502z"/>
		</g>
		<g>
			<path fill="#313E42" d="M130.493,78.679h4.608c2.185,0,4.009,0.743,5.496,2.256c1.488,1.488,2.232,3.528,2.232,6.145
				s-0.744,4.656-2.232,6.168c-1.487,1.488-3.312,2.232-5.496,2.232h-4.608V78.679z M132.605,80.694v12.77h2.136
				c3.097,0,5.833-1.681,5.833-6.385s-2.736-6.385-5.833-6.385H132.605z"/>
		</g>
		<g>
			<path fill="#313E42" d="M153.124,78.679h2.112v11.232c0,2.208,1.393,3.744,3.769,3.744s3.769-1.536,3.769-3.744V78.679h2.112
				v11.089c0,1.848-0.553,3.312-1.681,4.344c-1.104,1.032-2.496,1.561-4.2,1.561s-3.097-0.528-4.225-1.561
				c-1.104-1.032-1.656-2.496-1.656-4.344V78.679z"/>
		</g>
		<g>
			<path fill="#313E42" d="M189.03,90.583c-0.384,1.513-1.152,2.761-2.305,3.696c-1.151,0.937-2.567,1.393-4.272,1.393
				c-2.088,0-3.888-0.744-5.376-2.256c-1.464-1.513-2.208-3.625-2.208-6.337s0.744-4.824,2.208-6.337
				c1.488-1.512,3.288-2.256,5.376-2.256c1.705,0,3.121,0.479,4.272,1.416c1.152,0.937,1.921,2.16,2.305,3.672l-2.04,0.601
				c-0.792-2.448-2.305-3.673-4.537-3.673c-1.607,0-2.903,0.576-3.912,1.705c-0.983,1.128-1.488,2.76-1.488,4.872
				s0.505,3.744,1.488,4.872c1.009,1.128,2.305,1.704,3.912,1.704c2.232,0,3.745-1.224,4.537-3.672L189.03,90.583z"/>
		</g>
		<g>
			<path fill="#313E42" d="M197.957,80.694v-2.016h11.809v2.016h-4.849v14.785h-2.112V80.694H197.957z"/>
		</g>
		<g>
			<path fill="#313E42" d="M58.434,108.679h4.608c2.185,0,4.009,0.743,5.496,2.256c1.488,1.488,2.232,3.528,2.232,6.145
				s-0.744,4.656-2.232,6.168c-1.487,1.488-3.312,2.232-5.496,2.232h-4.608V108.679z M60.546,110.694v12.77h2.136
				c3.097,0,5.833-1.681,5.833-6.385s-2.736-6.385-5.833-6.385H60.546z"/>
		</g>
		<g>
			<path fill="#313E42" d="M81.09,108.679h9.648v2.016h-7.536v4.824h6.097v2.017h-6.097v5.929h7.776v2.016H81.09V108.679z"/>
		</g>
		<g>
			<path fill="#313E42" d="M108.139,112.278c-0.768-1.368-1.536-1.776-2.664-1.776c-1.152,0-2.016,0.961-2.016,2.089
				c0,0.792,0.239,1.368,0.983,1.944c0.385,0.264,0.696,0.479,0.96,0.624l1.297,0.672c0.96,0.479,1.416,0.72,2.208,1.32
				c1.128,0.84,1.728,1.824,1.8,3.504c0,1.344-0.432,2.496-1.296,3.433c-0.96,1.056-2.208,1.584-3.744,1.584
				c-1.368,0-2.544-0.433-3.528-1.272s-1.608-1.944-1.896-3.264l1.824-1.104c0.648,2.28,1.608,3.624,3.601,3.624
				c0.983,0,1.728-0.312,2.28-0.96c0.432-0.528,0.647-1.2,0.647-1.992c0-1.464-1.151-2.304-3.168-3.264
				c-1.32-0.601-1.968-0.984-2.832-1.729c-0.864-0.769-1.248-1.704-1.248-2.952c0-1.225,0.408-2.232,1.224-3.049
				c0.816-0.815,1.776-1.224,2.904-1.224c2.232,0,3.48,0.96,4.368,2.688L108.139,112.278z"/>
		</g>
		<g>
			<path fill="#313E42" d="M120.953,108.679h2.112v16.801h-2.112V108.679z"/>
		</g>
		<g>
			<path fill="#313E42" d="M142.386,119.023v-2.017h5.641v8.473h-1.801l-0.216-2.304c-0.84,1.464-2.544,2.496-4.729,2.496
				c-2.064,0-3.84-0.744-5.305-2.232c-1.464-1.488-2.184-3.601-2.184-6.36c0-2.761,0.744-4.872,2.208-6.36s3.265-2.232,5.376-2.232
				c3.457,0,5.833,1.944,6.601,5.088l-2.04,0.601c-0.792-2.448-2.328-3.673-4.561-3.673c-1.607,0-2.903,0.576-3.912,1.705
				c-0.983,1.128-1.488,2.76-1.488,4.872s0.505,3.744,1.488,4.872c1.009,1.128,2.305,1.704,3.912,1.704
				c2.809,0,4.44-1.848,4.633-4.632H142.386z"/>
		</g>
		<g>
			<path fill="#313E42" d="M168.93,108.679h2.112v16.801h-2.472l-7.585-13.081v13.081h-2.112v-16.801h2.473l7.584,13.129V108.679z"
				/>
		</g>
		<g>
			<path fill="#313E42" d="M182.201,108.679h9.648v2.016h-7.536v4.824h6.097v2.017h-6.097v5.929h7.776v2.016h-9.889V108.679z"/>
		</g>
		<g>
			<path fill="#313E42" d="M211.89,125.479l-4.92-7.921h-2.521v7.921h-2.112v-16.801h5.593c3,0,4.944,1.655,4.944,4.44
				c0,2.304-1.296,3.84-3.505,4.296l5.017,8.064H211.89z M204.449,110.694v4.849h3.528c1.8,0,2.712-0.816,2.712-2.424
				c0-1.608-0.912-2.425-2.712-2.425H204.449z"/>
		</g>
	</g>
	<g>
		<g>
			<path fill="#313E42" d="M97.951,189.906c-0.384,1.513-1.152,2.761-2.305,3.696c-1.151,0.937-2.567,1.393-4.272,1.393
				c-2.088,0-3.888-0.744-5.376-2.256c-1.464-1.513-2.208-3.625-2.208-6.337s0.744-4.824,2.208-6.337
				c1.488-1.512,3.288-2.256,5.376-2.256c1.705,0,3.121,0.479,4.272,1.416c1.152,0.937,1.921,2.16,2.305,3.672l-2.04,0.601
				c-0.792-2.448-2.305-3.673-4.537-3.673c-1.607,0-2.903,0.576-3.912,1.705c-0.983,1.128-1.488,2.76-1.488,4.872
				s0.505,3.744,1.488,4.872c1.009,1.128,2.305,1.704,3.912,1.704c2.232,0,3.745-1.224,4.537-3.672L97.951,189.906z"/>
		</g>
		<g>
			<path fill="#313E42" d="M115.326,177.81c2.112,0,3.889,0.768,5.353,2.304c1.465,1.513,2.185,3.625,2.185,6.289
				s-0.72,4.776-2.185,6.312c-1.464,1.512-3.24,2.28-5.353,2.28s-3.888-0.769-5.353-2.28c-1.464-1.536-2.184-3.648-2.184-6.312
				s0.72-4.776,2.184-6.289C111.438,178.577,113.214,177.81,115.326,177.81z M115.326,179.825c-1.56,0-2.855,0.576-3.864,1.705
				c-0.983,1.128-1.488,2.76-1.488,4.872s0.505,3.744,1.488,4.872c1.009,1.128,2.305,1.704,3.864,1.704
				c1.561,0,2.856-0.576,3.841-1.704c1.008-1.128,1.512-2.76,1.512-4.872s-0.504-3.744-1.512-4.872
				C118.183,180.401,116.887,179.825,115.326,179.825z"/>
		</g>
		<g>
			<path fill="#313E42" d="M133.182,178.002h4.608c2.185,0,4.009,0.743,5.496,2.256c1.488,1.488,2.232,3.528,2.232,6.145
				s-0.744,4.656-2.232,6.168c-1.487,1.488-3.312,2.232-5.496,2.232h-4.608V178.002z M135.294,180.018v12.77h2.136
				c3.097,0,5.833-1.681,5.833-6.385s-2.736-6.385-5.833-6.385H135.294z"/>
		</g>
		<g>
			<path fill="#313E42" d="M155.837,178.002h9.648v2.016h-7.536v4.824h6.097v2.017h-6.097v5.929h7.776v2.016h-9.889V178.002z"/>
		</g>
		<g>
			<path fill="#313E42" d="M185.526,194.803l-4.92-7.921h-2.521v7.921h-2.112v-16.801h5.593c3,0,4.944,1.655,4.944,4.44
				c0,2.304-1.296,3.84-3.505,4.296l5.017,8.064H185.526z M178.086,180.018v4.849h3.528c1.8,0,2.712-0.816,2.712-2.424
				c0-1.608-0.912-2.425-2.712-2.425H178.086z"/>
		</g>
	</g>
	<g>
		<g>
			<path fill="#313E42" d="M130.434,159.554c-0.816-0.792-1.225-1.824-1.225-3.097c0-2.4,1.465-4.32,4.393-5.784
				c-0.6-1.152-0.888-2.112-0.888-2.88c0-2.593,1.512-4.249,4.296-4.249c1.921,0,3.12,1.104,3.12,3.024
				c0,2.088-1.536,3.312-4.416,4.681l2.88,4.896c0.601-0.863,1.2-1.896,1.849-3.072l0.864,1.249
				c-0.769,1.368-1.416,2.399-1.944,3.12l1.824,3.096h-1.729l-1.128-1.896c-1.368,1.392-3,2.088-4.944,2.088
				C132.233,160.729,131.25,160.346,130.434,159.554z M137.586,157.394l-3.264-5.521c-2.4,1.128-3.601,2.568-3.601,4.297
				c0,1.848,1.128,3.168,3.048,3.168C135.162,159.338,136.434,158.689,137.586,157.394z M134.226,147.504
				c0,0.841,0.265,1.705,0.816,2.617c0.576-0.265,1.008-0.48,1.32-0.648c0.312-0.168,0.672-0.408,1.08-0.696
				c0.84-0.575,1.176-1.224,1.176-2.017c0-1.271-0.6-1.92-1.8-1.92C135.354,144.84,134.226,145.944,134.226,147.504z"/>
		</g>
	</g>
	<g>
		<g>
			<rect x="155.299" y="151.312" fill="#313E42" width="54.5" height="3"/>
		</g>
	</g>
	<g>
		<g>
			<rect x="61.699" y="151.312" fill="#313E42" width="54.5" height="3"/>
		</g>
	</g>
	<g>
		<g>
			<path fill="none" stroke="#313E42" stroke-width="3" stroke-miterlimit="10" d="M209.799,149.046"/>
		</g>
	</g>
	<g>
		<g>
			<path fill="none" stroke="#313E42" stroke-width="3" stroke-miterlimit="10" d="M155.299,149.046"/>
		</g>
	</g>
</g>
</svg>
