<?xml version="1.0" encoding="utf-8"?>
<!-- Generator: Adobe Illustrator 17.1.0, SVG Export Plug-In . SVG Version: 6.00 Build 0)  -->
<!DOCTYPE svg PUBLIC "-//W3C//DTD SVG 1.1//EN" "http://www.w3.org/Graphics/SVG/1.1/DTD/svg11.dtd">
<svg version="1.1" id="Layer_1" xmlns="http://www.w3.org/2000/svg" xmlns:xlink="http://www.w3.org/1999/xlink" x="0px" y="0px"
	 viewBox="0 0 65.956 65.913" enable-background="new 0 0 65.956 65.913" xml:space="preserve">
<circle fill="#F18360" cx="32.978" cy="32.956" r="32.956"/>
<g>
	<defs>
		<circle id="SVGID_53_" cx="32.978" cy="32.956" r="32.956"/>
	</defs>
	<clipPath id="SVGID_2_">
		<use xlink:href="#SVGID_53_"  overflow="visible"/>
	</clipPath>
	<path clip-path="url(#SVGID_2_)" fill="#313E42" d="M40.586,68.151c-0.007-1.75-2.605-4.87-5.419-5.037
		c-1.211-0.079-2.207,0.291-3.367,0.714c-0.521,0.19-1.061,0.386-1.642,0.548c-1.862,0.519-4.186,0.373-6.219-0.389
		c-2.535-0.95-4.427-2.657-5.062-4.567c-0.495-1.49-0.243-3.077,0.728-4.589c1.498-2.334,4.367-3.399,7.855-2.926
		c1.726,0.235,3.378,0.885,4.977,1.513c1.107,0.435,2.154,0.846,3.224,1.131c3.884,1.035,6.985,0.923,9.764-0.357
		c3.636-1.675,5.138-4.322,4.815-7.873c-0.353-3.885-6.85-6.951-10.614-7.434l0.191-1.488c4.443,0.571,11.502,4.221,11.917,8.788
		c0.358,3.949-1.215,7.313-5.682,9.371c-3.071,1.413-6.597,1.56-10.777,0.443c-1.151-0.308-2.287-0.753-3.385-1.185
		c-1.586-0.623-3.084-1.211-4.631-1.422c-1.697-0.23-4.789-0.247-6.392,2.25c-0.728,1.133-0.918,2.245-0.565,3.306
		c0.493,1.483,2.05,2.843,4.164,3.636c1.721,0.644,3.747,0.777,5.29,0.348c0.534-0.148,1.037-0.332,1.531-0.512
		c1.206-0.438,2.446-0.888,3.969-0.803c3.011,0.179,6.817,3.246,6.83,6.529L40.586,68.151z"/>
</g>
<g>
	
		<rect x="4.35" y="11.382" transform="matrix(0.7834 0.6216 -0.6216 0.7834 22.0814 -11.4788)" fill="#F1F0EE" width="46.315" height="29.112"/>
	
		<rect x="18.719" y="5.552" transform="matrix(0.7834 0.6216 -0.6216 0.7834 16.8656 -8.1745)" fill="#FFFFFF" width="2.881" height="29.112"/>
	
		<rect x="22.261" y="8.362" transform="matrix(0.7834 0.6216 -0.6216 0.7834 19.3796 -9.7671)" fill="#FFFFFF" width="2.881" height="29.112"/>
	
		<rect x="25.803" y="11.172" transform="matrix(0.7834 0.6216 -0.6216 0.7834 21.8936 -11.3598)" fill="#FFFFFF" width="2.881" height="29.112"/>
	
		<rect x="29.345" y="13.982" transform="matrix(0.7834 0.6216 -0.6216 0.7834 24.4076 -12.9524)" fill="#FFFFFF" width="2.881" height="29.112"/>
	
		<rect x="32.886" y="16.793" transform="matrix(0.7834 0.6216 -0.6216 0.7834 26.9217 -14.545)" fill="#FFFFFF" width="2.881" height="29.112"/>
	
		<rect x="36.428" y="19.603" transform="matrix(0.7834 0.6216 -0.6216 0.7834 29.4356 -16.1377)" fill="#FFFFFF" width="2.881" height="29.112"/>
	
		<ellipse transform="matrix(-0.7834 -0.6216 0.6216 -0.7834 9.5292 26.4099)" fill="#495C5F" cx="9.367" cy="11.544" rx="2.531" ry="14.556"/>
	
		<ellipse transform="matrix(-0.7834 -0.6216 0.6216 -0.7834 56.3396 100.3005)" fill="#F1F0EE" cx="45.649" cy="40.332" rx="2.531" ry="14.556"/>
</g>
</svg>
